<svg width="21" height="20" viewBox="0 0 21 20" fill="none" xmlns="http://www.w3.org/2000/svg">
<path fill-rule="evenodd" clip-rule="evenodd" d="M3.6208 3.2264C4.67341 2.20939 6.2359 1.83337 8.20358 1.83337H12.7576C14.7253 1.83337 16.2877 2.20939 17.3404 3.2264C18.393 4.24342 18.7821 5.75307 18.7821 7.65421C18.7821 8.0339 18.4636 8.34171 18.0706 8.34171C17.6776 8.34171 17.359 8.0339 17.359 7.65421C17.359 5.88868 16.9892 4.83166 16.3341 4.19868C15.6789 3.56569 14.5849 3.20837 12.7576 3.20837H8.20358C6.37626 3.20837 5.28225 3.56569 4.6271 4.19868C3.97196 4.83166 3.60214 5.88868 3.60214 7.65421V12.0542C3.60214 13.8197 3.97196 14.8767 4.6271 15.5097C5.28225 16.1427 6.37626 16.5 8.20358 16.5C8.59656 16.5 8.91514 16.8078 8.91514 17.1875C8.91514 17.5672 8.59656 17.875 8.20358 17.875C6.2359 17.875 4.67341 17.499 3.6208 16.482C2.56819 15.465 2.17902 13.9553 2.17902 12.0542V7.65421C2.17902 5.75307 2.56819 4.24342 3.6208 3.2264Z" fill="#F1F1F1"/>
<path fill-rule="evenodd" clip-rule="evenodd" d="M6.00454 5.52953C6.73695 4.82189 7.80134 4.58337 9.05746 4.58337H11.9037C13.289 4.58337 14.4419 4.87094 15.1672 5.76279C15.41 6.06135 15.3563 6.49355 15.0473 6.72813C14.7383 6.96272 14.2909 6.91085 14.0481 6.61229C13.7298 6.22081 13.137 5.95837 11.9037 5.95837H9.05746C7.9417 5.95837 7.34578 6.17819 7.01084 6.5018C6.6759 6.82541 6.44839 7.40118 6.44839 8.47921V11.2292C6.44839 12.4209 6.72017 12.9965 7.11962 13.3041C7.42692 13.5408 7.47747 13.9733 7.23252 14.2702C6.98756 14.5671 6.53987 14.616 6.23257 14.3793C5.32274 13.6786 5.02527 12.5675 5.02527 11.2292V8.47921C5.02527 7.26557 5.27213 6.23717 6.00454 5.52953Z" fill="#F1F1F1"/>
<path fill-rule="evenodd" clip-rule="evenodd" d="M6.69527 0C7.08825 0 7.40683 0.307804 7.40683 0.6875V2.52083C7.40683 2.90053 7.08825 3.20833 6.69527 3.20833C6.30228 3.20833 5.9837 2.90053 5.9837 2.52083V0.6875C5.9837 0.307804 6.30228 0 6.69527 0Z" fill="#F1F1F1"/>
<path fill-rule="evenodd" clip-rule="evenodd" d="M10.4807 0C10.8737 0 11.1923 0.307804 11.1923 0.6875V2.52083C11.1923 2.90053 10.8737 3.20833 10.4807 3.20833C10.0877 3.20833 9.76917 2.90053 9.76917 2.52083V0.6875C9.76917 0.307804 10.0877 0 10.4807 0Z" fill="#F1F1F1"/>
<path fill-rule="evenodd" clip-rule="evenodd" d="M14.2756 0C14.6686 0 14.9872 0.307804 14.9872 0.6875V2.52083C14.9872 2.90053 14.6686 3.20833 14.2756 3.20833C13.8826 3.20833 13.564 2.90053 13.564 2.52083V0.6875C13.564 0.307804 13.8826 0 14.2756 0Z" fill="#F1F1F1"/>
<path fill-rule="evenodd" clip-rule="evenodd" d="M17.3591 6.1875C17.3591 5.8078 17.6776 5.5 18.0706 5.5H19.9681C20.3611 5.5 20.6797 5.8078 20.6797 6.1875C20.6797 6.5672 20.3611 6.875 19.9681 6.875H18.0706C17.6776 6.875 17.3591 6.5672 17.3591 6.1875Z" fill="#F1F1F1"/>
<path fill-rule="evenodd" clip-rule="evenodd" d="M6.69527 16.5C7.08825 16.5 7.40683 16.8078 7.40683 17.1875V19.0208C7.40683 19.4005 7.08825 19.7083 6.69527 19.7083C6.30228 19.7083 5.9837 19.4005 5.9837 19.0208V17.1875C5.9837 16.8078 6.30228 16.5 6.69527 16.5Z" fill="#F1F1F1"/>
<path fill-rule="evenodd" clip-rule="evenodd" d="M0.281555 6.1875C0.281555 5.8078 0.600133 5.5 0.993118 5.5H2.89062C3.2836 5.5 3.60218 5.8078 3.60218 6.1875C3.60218 6.5672 3.2836 6.875 2.89062 6.875H0.993118C0.600133 6.875 0.281555 6.5672 0.281555 6.1875Z" fill="#F1F1F1"/>
<path fill-rule="evenodd" clip-rule="evenodd" d="M0.281555 9.85413C0.281555 9.47443 0.600133 9.16663 0.993118 9.16663H2.89062C3.2836 9.16663 3.60218 9.47443 3.60218 9.85413C3.60218 10.2338 3.2836 10.5416 2.89062 10.5416H0.993118C0.600133 10.5416 0.281555 10.2338 0.281555 9.85413Z" fill="#F1F1F1"/>
<path fill-rule="evenodd" clip-rule="evenodd" d="M0.281555 13.5209C0.281555 13.1412 0.600133 12.8334 0.993118 12.8334H2.89062C3.2836 12.8334 3.60218 13.1412 3.60218 13.5209C3.60218 13.9006 3.2836 14.2084 2.89062 14.2084H0.993118C0.600133 14.2084 0.281555 13.9006 0.281555 13.5209Z" fill="#F1F1F1"/>
<path fill-rule="evenodd" clip-rule="evenodd" d="M14.9492 13.6675C14.5091 13.6675 14.1523 14.0122 14.1523 14.4375C14.1523 14.8627 14.5091 15.2075 14.9492 15.2075C15.3893 15.2075 15.7462 14.8627 15.7462 14.4375C15.7462 14.0122 15.3893 13.6675 14.9492 13.6675ZM12.7291 14.4375C12.7291 13.2528 13.7231 12.2925 14.9492 12.2925C16.1753 12.2925 17.1693 13.2528 17.1693 14.4375C17.1693 15.6221 16.1753 16.5825 14.9492 16.5825C13.7231 16.5825 12.7291 15.6221 12.7291 14.4375Z" fill="#F1F1F1"/>
<path fill-rule="evenodd" clip-rule="evenodd" d="M13.4459 10.6091C13.4001 10.5348 13.3182 10.5291 13.2733 10.5549L13.2675 10.5582L12.3949 11.0492C12.286 11.1084 12.244 11.2508 12.3096 11.3594L12.3109 11.3616C12.6146 11.8689 12.7313 12.4887 12.4113 13.026C12.0911 13.5639 11.4772 13.7775 10.8695 13.7775C10.7407 13.7775 10.6324 13.8822 10.6324 14.0066V14.8591C10.6324 14.9998 10.745 15.0904 10.8566 15.0884L10.8695 15.0882C11.4772 15.0882 12.0911 15.3018 12.4113 15.8397C12.7313 16.377 12.6146 16.9968 12.3109 17.5041L12.3096 17.5064C12.248 17.6084 12.2781 17.7505 12.4042 17.8218C12.4041 17.8217 12.4043 17.8218 12.4042 17.8218L13.2638 18.3055C13.3256 18.3386 13.4077 18.3186 13.4459 18.2566L13.4472 18.2546L13.5014 18.1673C13.8048 17.6632 14.3003 17.2585 14.9397 17.2585C15.5791 17.2585 16.0745 17.6632 16.378 18.1673L16.4335 18.2566C16.4792 18.331 16.5612 18.3367 16.6061 18.3109L16.6119 18.3075L17.4845 17.8165C17.5933 17.7574 17.6353 17.615 17.5698 17.5064L17.5684 17.5041C17.2648 16.9968 17.148 16.377 17.468 15.8397C17.7883 15.3018 18.4021 15.0883 19.0098 15.0883C19.1386 15.0883 19.247 14.9836 19.247 14.8591V14.0066C19.247 13.8822 19.1386 13.7775 19.0098 13.7775C18.4021 13.7775 17.7883 13.5639 17.468 13.026C17.148 12.4887 17.2648 11.8689 17.5684 11.3616L17.5698 11.3594C17.6314 11.2574 17.6012 11.1151 17.475 11.0439C17.4749 11.0439 17.475 11.0439 17.475 11.0439L16.6155 10.5603C16.5538 10.5272 16.4716 10.5471 16.4335 10.6091L16.4322 10.6112L16.378 10.6985C16.0745 11.2026 15.5791 11.6073 14.9397 11.6073C14.3003 11.6073 13.8048 11.2026 13.5014 10.6985L13.4459 10.6091ZM14.6681 9.90467C14.2398 9.21086 13.2998 8.94188 12.5487 9.37145L11.6919 9.85364C10.8944 10.2907 10.6159 11.2813 11.0795 12.0508C11.1828 12.2237 11.1809 12.3121 11.1762 12.3394C11.154 12.3571 11.0757 12.4025 10.8695 12.4025C9.95474 12.4025 9.20923 13.1228 9.20923 14.0066V14.8591C9.20923 15.7426 9.94619 16.4753 10.8745 16.4633C11.077 16.464 11.1541 16.5088 11.1762 16.5264C11.1809 16.5537 11.1828 16.6421 11.0795 16.8149C10.611 17.5926 10.9034 18.5678 11.6875 19.0096L12.5512 19.4957L12.5563 19.4985C13.2909 19.9041 14.2318 19.6677 14.6681 18.9611C14.6683 18.9607 14.6685 18.9603 14.6688 18.9599L14.7244 18.8703L14.7302 18.8608C14.8329 18.6893 14.9123 18.6457 14.9397 18.6355C14.967 18.6457 15.0464 18.6893 15.1491 18.8608L15.2106 18.9599C15.2108 18.9603 15.2111 18.9607 15.2113 18.9611C15.6396 19.6549 16.5795 19.9239 17.3306 19.4943L18.1875 19.0121C18.9849 18.5751 19.2634 17.5845 18.7999 16.815C18.6966 16.6421 18.6984 16.5537 18.7032 16.5264C18.7254 16.5087 18.8036 16.4633 19.0098 16.4633C19.9246 16.4633 20.6701 15.743 20.6701 14.8591V14.0066C20.6701 13.1228 19.9246 12.4025 19.0098 12.4025C18.8036 12.4025 18.7254 12.3571 18.7032 12.3394C18.6984 12.3121 18.6966 12.2237 18.7999 12.0508C19.2684 11.2731 18.9759 10.298 18.1919 9.85611L17.3281 9.37004L17.323 9.36721C16.5884 8.96162 15.6475 9.19802 15.2113 9.90467C15.211 9.90505 15.2108 9.90544 15.2106 9.90582L15.1549 9.99542L15.1491 10.0049C15.0464 10.1765 14.967 10.22 14.9397 10.2302C14.9123 10.22 14.8329 10.1765 14.7302 10.0049L14.6688 9.90582C14.6685 9.90543 14.6683 9.90505 14.6681 9.90467Z" fill="#F1F1F1"/>
</svg>
