<svg width="21" height="20" viewBox="0 0 21 20" fill="none" xmlns="http://www.w3.org/2000/svg">
<path fill-rule="evenodd" clip-rule="evenodd" d="M3.93422 3.22653C4.98683 2.20951 6.54931 1.8335 8.51699 1.8335H13.071C15.0387 1.8335 16.6012 2.20951 17.6538 3.22653C18.7064 4.24354 19.0956 5.75319 19.0956 7.65433C19.0956 8.03403 18.777 8.34183 18.384 8.34183C17.991 8.34183 17.6724 8.03403 17.6724 7.65433C17.6724 5.8888 17.3026 4.83179 16.6475 4.1988C15.9923 3.56581 14.8983 3.2085 13.071 3.2085H8.51699C6.68968 3.2085 5.59566 3.56581 4.94052 4.1988C4.28538 4.83179 3.91556 5.8888 3.91556 7.65433V12.0543C3.91556 13.8199 4.28538 14.8769 4.94052 15.5099C5.59566 16.1428 6.68968 16.5002 8.51699 16.5002C8.90998 16.5002 9.22856 16.808 9.22856 17.1877C9.22856 17.5674 8.90998 17.8752 8.51699 17.8752C6.54931 17.8752 4.98683 17.4991 3.93422 16.4821C2.88161 15.4651 2.49243 13.9555 2.49243 12.0543V7.65433C2.49243 5.75319 2.88161 4.24354 3.93422 3.22653Z" fill="#EFA81B"/>
<path fill-rule="evenodd" clip-rule="evenodd" d="M6.31796 5.52965C7.05036 4.82201 8.11475 4.5835 9.37087 4.5835H12.2171C13.6024 4.5835 14.7553 4.87106 15.4806 5.76291C15.7234 6.06147 15.6697 6.49367 15.3607 6.72826C15.0517 6.96284 14.6043 6.91098 14.3615 6.61242C14.0432 6.22093 13.4504 5.9585 12.2171 5.9585H9.37087C8.25512 5.9585 7.6592 6.17831 7.32426 6.50192C6.98932 6.82554 6.76181 7.4013 6.76181 8.47933V11.2293C6.76181 12.4211 7.03359 12.9966 7.43303 13.3042C7.74034 13.5409 7.79088 13.9734 7.54593 14.2704C7.30098 14.5673 6.85329 14.6161 6.54598 14.3794C5.63616 13.6787 5.33868 12.5676 5.33868 11.2293V8.47933C5.33868 7.26569 5.58555 6.23729 6.31796 5.52965Z" fill="#EFA81B"/>
<path fill-rule="evenodd" clip-rule="evenodd" d="M7.00868 0C7.40167 0 7.72024 0.307804 7.72024 0.6875V2.52083C7.72024 2.90053 7.40167 3.20833 7.00868 3.20833C6.6157 3.20833 6.29712 2.90053 6.29712 2.52083V0.6875C6.29712 0.307804 6.6157 0 7.00868 0Z" fill="#EFA81B"/>
<path fill-rule="evenodd" clip-rule="evenodd" d="M10.7941 0C11.1871 0 11.5057 0.307804 11.5057 0.6875V2.52083C11.5057 2.90053 11.1871 3.20833 10.7941 3.20833C10.4012 3.20833 10.0826 2.90053 10.0826 2.52083V0.6875C10.0826 0.307804 10.4012 0 10.7941 0Z" fill="#EFA81B"/>
<path fill-rule="evenodd" clip-rule="evenodd" d="M14.589 0C14.982 0 15.3006 0.307804 15.3006 0.6875V2.52083C15.3006 2.90053 14.982 3.20833 14.589 3.20833C14.196 3.20833 13.8774 2.90053 13.8774 2.52083V0.6875C13.8774 0.307804 14.196 0 14.589 0Z" fill="#EFA81B"/>
<path fill-rule="evenodd" clip-rule="evenodd" d="M17.6725 6.1875C17.6725 5.8078 17.9911 5.5 18.384 5.5H20.2815C20.6745 5.5 20.9931 5.8078 20.9931 6.1875C20.9931 6.5672 20.6745 6.875 20.2815 6.875H18.384C17.9911 6.875 17.6725 6.5672 17.6725 6.1875Z" fill="#EFA81B"/>
<path fill-rule="evenodd" clip-rule="evenodd" d="M7.00868 16.5C7.40167 16.5 7.72024 16.8078 7.72024 17.1875V19.0208C7.72024 19.4005 7.40167 19.7083 7.00868 19.7083C6.6157 19.7083 6.29712 19.4005 6.29712 19.0208V17.1875C6.29712 16.8078 6.6157 16.5 7.00868 16.5Z" fill="#EFA81B"/>
<path fill-rule="evenodd" clip-rule="evenodd" d="M0.594971 6.1875C0.594971 5.8078 0.913548 5.5 1.30653 5.5H3.20403C3.59702 5.5 3.9156 5.8078 3.9156 6.1875C3.9156 6.5672 3.59702 6.875 3.20403 6.875H1.30653C0.913548 6.875 0.594971 6.5672 0.594971 6.1875Z" fill="#EFA81B"/>
<path fill-rule="evenodd" clip-rule="evenodd" d="M0.594971 9.85425C0.594971 9.47455 0.913548 9.16675 1.30653 9.16675H3.20403C3.59702 9.16675 3.9156 9.47455 3.9156 9.85425C3.9156 10.2339 3.59702 10.5417 3.20403 10.5417H1.30653C0.913548 10.5417 0.594971 10.2339 0.594971 9.85425Z" fill="#EFA81B"/>
<path fill-rule="evenodd" clip-rule="evenodd" d="M0.594971 13.5208C0.594971 13.1411 0.913548 12.8333 1.30653 12.8333H3.20403C3.59702 12.8333 3.9156 13.1411 3.9156 13.5208C3.9156 13.9004 3.59702 14.2083 3.20403 14.2083H1.30653C0.913548 14.2083 0.594971 13.9004 0.594971 13.5208Z" fill="#EFA81B"/>
<path fill-rule="evenodd" clip-rule="evenodd" d="M15.2626 13.6675C14.8225 13.6675 14.4657 14.0122 14.4657 14.4375C14.4657 14.8627 14.8225 15.2075 15.2626 15.2075C15.7028 15.2075 16.0596 14.8627 16.0596 14.4375C16.0596 14.0122 15.7028 13.6675 15.2626 13.6675ZM13.0425 14.4375C13.0425 13.2528 14.0365 12.2925 15.2626 12.2925C16.4887 12.2925 17.4827 13.2528 17.4827 14.4375C17.4827 15.6221 16.4887 16.5825 15.2626 16.5825C14.0365 16.5825 13.0425 15.6221 13.0425 14.4375Z" fill="#EFA81B"/>
<path fill-rule="evenodd" clip-rule="evenodd" d="M13.7593 10.6091C13.7135 10.5348 13.6316 10.5291 13.5867 10.5549L13.5809 10.5582L12.7083 11.0492C12.5994 11.1084 12.5574 11.2508 12.623 11.3594L12.6243 11.3616C12.928 11.8689 13.0447 12.4887 12.7248 13.026C12.4045 13.5639 11.7906 13.7775 11.183 13.7775C11.0541 13.7775 10.9458 13.8822 10.9458 14.0066V14.8591C10.9458 14.9998 11.0584 15.0904 11.17 15.0884L11.183 15.0882C11.7906 15.0882 12.4045 15.3019 12.7248 15.8397C13.0447 16.377 12.928 16.9968 12.6243 17.5041L12.623 17.5064C12.5614 17.6084 12.5916 17.7505 12.7176 17.8218L13.5773 18.3055C13.639 18.3386 13.7211 18.3186 13.7593 18.2567L13.7606 18.2546L13.8148 18.1673C14.1182 17.6632 14.6137 17.2585 15.2531 17.2585C15.8925 17.2585 16.3879 17.6632 16.6914 18.1673L16.7469 18.2566C16.7927 18.331 16.8746 18.3367 16.9195 18.3109L16.9253 18.3075L17.7979 17.8165C17.9067 17.7574 17.9488 17.615 17.8832 17.5064L17.8818 17.5041C17.5782 16.9968 17.4615 16.377 17.7814 15.8397C18.1017 15.3019 18.7156 15.0883 19.3232 15.0883C19.4521 15.0883 19.5604 14.9836 19.5604 14.8591V14.0066C19.5604 13.8822 19.4521 13.7775 19.3232 13.7775C18.7156 13.7775 18.1017 13.5639 17.7814 13.026C17.4615 12.4887 17.5782 11.8689 17.8818 11.3616L17.8832 11.3594C17.9448 11.2574 17.9146 11.1151 17.7884 11.0439L16.9289 10.5603C16.8672 10.5272 16.7851 10.5471 16.7469 10.6091L16.7456 10.6112L16.6914 10.6985C16.3879 11.2026 15.8925 11.6073 15.2531 11.6073C14.6137 11.6073 14.1182 11.2026 13.8148 10.6985L13.7593 10.6091ZM14.9815 9.90467C14.5532 9.21086 13.6133 8.94188 12.8622 9.37145L12.0053 9.85364C11.2078 10.2907 10.9294 11.2813 11.3929 12.0508C11.4962 12.2237 11.4943 12.3121 11.4896 12.3394C11.4674 12.3571 11.3892 12.4025 11.183 12.4025C10.2682 12.4025 9.52264 13.1228 9.52264 14.0066V14.8591C9.52264 15.7426 10.2596 16.4753 11.1879 16.4633C11.3904 16.464 11.4676 16.5088 11.4896 16.5264C11.4943 16.5537 11.4962 16.6421 11.3929 16.8149C10.9244 17.5926 11.2169 18.5678 12.0009 19.0096L12.8647 19.4957L12.8697 19.4985C13.6044 19.9041 14.5453 19.6677 14.9815 18.9611L14.9822 18.9599L15.0378 18.8703L15.0437 18.8608C15.1463 18.6893 15.2257 18.6457 15.2531 18.6355C15.2805 18.6457 15.3599 18.6893 15.4625 18.8608L15.524 18.9599L15.5247 18.9611C15.953 19.6549 16.8929 19.9239 17.644 19.4943L18.5009 19.0121C19.2983 18.5751 19.5768 17.5845 19.1133 16.815C19.01 16.6421 19.0118 16.5537 19.0166 16.5264C19.0388 16.5087 19.117 16.4633 19.3232 16.4633C20.238 16.4633 20.9835 15.743 20.9835 14.8591V14.0066C20.9835 13.1228 20.238 12.4025 19.3232 12.4025C19.117 12.4025 19.0388 12.3571 19.0166 12.3394C19.0118 12.3121 19.01 12.2237 19.1133 12.0508C19.5818 11.2731 19.2893 10.298 18.5053 9.85611L17.6415 9.37004L17.6365 9.36721C16.9018 8.96162 15.9609 9.19802 15.5247 9.90467L15.524 9.90582L15.4683 9.99542L15.4625 10.0049C15.3599 10.1765 15.2805 10.22 15.2531 10.2302C15.2257 10.22 15.1463 10.1765 15.0437 10.0049L14.9822 9.90582L14.9815 9.90467Z" fill="#EFA81B"/>
</svg>
